<?xml version="1.0" encoding="UTF-8"?>
<svg xmlns="http://www.w3.org/2000/svg" xmlns:xlink="http://www.w3.org/1999/xlink" width="614.866" height="611.379" viewBox="0 0 614.866 611.379">
<rect width="100%" height="100%" fill="white"/><defs>
<clipPath id="clip-0">
<path clip-rule="nonzero" d="M 500 226 L 614.867188 226 L 614.867188 341 L 500 341 Z M 500 226 "/>
</clipPath>
<clipPath id="clip-1">
<path clip-rule="nonzero" d="M 559 215 L 614.867188 215 L 614.867188 396 L 559 396 Z M 559 215 "/>
</clipPath>
<clipPath id="clip-2">
<path clip-rule="nonzero" d="M 230 497 L 345 497 L 345 611.378906 L 230 611.378906 Z M 230 497 "/>
</clipPath>
<clipPath id="clip-3">
<path clip-rule="nonzero" d="M 219 442 L 286 442 L 286 611.378906 L 219 611.378906 Z M 219 442 "/>
</clipPath>
<clipPath id="clip-4">
<path clip-rule="nonzero" d="M 332 442 L 399 442 L 399 611.378906 L 332 611.378906 Z M 332 442 "/>
</clipPath>
</defs>
<path fill-rule="nonzero" fill="rgb(61.199951%, 22.099304%, 5.099487%)" fill-opacity="0.25" d="M 274.308594 340.554688 L 274.308594 337.722656 L 387.695312 337.722656 L 387.695312 340.554688 Z M 274.308594 340.554688 "/>
<path fill-rule="nonzero" fill="rgb(61.199951%, 22.099304%, 5.099487%)" fill-opacity="0.25" d="M 230.65625 384.210938 L 230.65625 381.375 L 344.042969 381.375 L 344.042969 384.210938 Z M 230.65625 384.210938 "/>
<path fill-rule="nonzero" fill="rgb(61.199951%, 22.099304%, 5.099487%)" fill-opacity="0.25" d="M 274.308594 340.554688 L 274.308594 337.722656 L 230.65625 381.375 L 230.65625 384.210938 Z M 274.308594 340.554688 "/>
<path fill-rule="nonzero" fill="rgb(61.199951%, 22.099304%, 5.099487%)" fill-opacity="0.25" d="M 387.695312 337.722656 L 387.695312 340.554688 L 344.042969 384.210938 L 344.042969 381.375 Z M 387.695312 337.722656 "/>
<path fill-rule="nonzero" fill="rgb(61.199951%, 22.099304%, 5.099487%)" fill-opacity="0.25" d="M 274.308594 337.722656 L 230.65625 381.375 L 344.042969 381.375 L 387.695312 337.722656 Z M 274.308594 337.722656 "/>
<path fill-rule="nonzero" fill="rgb(61.199951%, 22.099304%, 5.099487%)" fill-opacity="0.25" d="M 387.695312 337.722656 L 387.695312 340.554688 L 344.042969 384.210938 L 344.042969 381.375 Z M 387.695312 337.722656 "/>
<path fill="none" stroke-width="0.79701" stroke-linecap="butt" stroke-linejoin="miter" stroke="rgb(0%, 0%, 0%)" stroke-opacity="1" stroke-miterlimit="10" d="M -0.00140625 2.833344 L -43.65375 -40.819 L 69.732969 -40.819 L 113.385312 2.833344 Z M -0.00140625 2.833344 " transform="matrix(1, 0, 0, -1, 274.31, 340.556)"/>
<path fill-rule="nonzero" fill="rgb(63.749695%, 41.249084%, 9.74884%)" fill-opacity="0.25" d="M 274.308594 340.554688 L 274.308594 227.167969 L 277.144531 227.167969 L 277.144531 340.554688 Z M 274.308594 340.554688 "/>
<path fill-rule="nonzero" fill="rgb(63.749695%, 41.249084%, 9.74884%)" fill-opacity="0.25" d="M 230.65625 384.210938 L 230.65625 270.820312 L 233.492188 270.820312 L 233.492188 384.210938 Z M 230.65625 384.210938 "/>
<path fill-rule="nonzero" fill="rgb(63.749695%, 41.249084%, 9.74884%)" fill-opacity="0.25" d="M 274.308594 340.554688 L 274.308594 227.167969 L 230.65625 270.820312 L 230.65625 384.210938 Z M 274.308594 340.554688 "/>
<path fill-rule="nonzero" fill="rgb(63.749695%, 41.249084%, 9.74884%)" fill-opacity="0.25" d="M 277.144531 227.167969 L 277.144531 340.554688 L 233.492188 384.210938 L 233.492188 270.820312 Z M 277.144531 227.167969 "/>
<path fill-rule="nonzero" fill="rgb(63.749695%, 41.249084%, 9.74884%)" fill-opacity="0.25" d="M 274.308594 227.167969 L 230.65625 270.820312 L 233.492188 270.820312 L 277.144531 227.167969 Z M 274.308594 227.167969 "/>
<path fill-rule="nonzero" fill="rgb(63.749695%, 41.249084%, 9.74884%)" fill-opacity="0.25" stroke-width="0.79701" stroke-linecap="butt" stroke-linejoin="miter" stroke="rgb(0%, 0%, 0%)" stroke-opacity="1" stroke-miterlimit="10" d="M 2.834531 113.388031 L 2.834531 0.0013125 L -40.817813 -43.654937 L -40.817813 69.735688 Z M 2.834531 113.388031 " transform="matrix(1, 0, 0, -1, 274.31, 340.556)"/>
<path fill-rule="nonzero" fill="rgb(17.999268%, 41.999817%, 40.99884%)" fill-opacity="0.25" d="M 274.308594 227.167969 L 274.308594 230.003906 L 387.695312 230.003906 L 387.695312 227.167969 Z M 274.308594 227.167969 "/>
<path fill-rule="nonzero" fill="rgb(17.999268%, 41.999817%, 40.99884%)" fill-opacity="0.25" d="M 230.65625 270.820312 L 230.65625 273.65625 L 344.042969 273.65625 L 344.042969 270.820312 Z M 230.65625 270.820312 "/>
<path fill-rule="nonzero" fill="rgb(17.999268%, 41.999817%, 40.99884%)" fill-opacity="0.25" d="M 274.308594 227.167969 L 274.308594 230.003906 L 230.65625 273.65625 L 230.65625 270.820312 Z M 274.308594 227.167969 "/>
<path fill-rule="nonzero" fill="rgb(17.999268%, 41.999817%, 40.99884%)" fill-opacity="0.25" d="M 387.695312 230.003906 L 387.695312 227.167969 L 344.042969 270.820312 L 344.042969 273.65625 Z M 387.695312 230.003906 "/>
<path fill-rule="nonzero" fill="rgb(17.999268%, 41.999817%, 40.99884%)" fill-opacity="0.25" d="M 274.308594 230.003906 L 230.65625 273.65625 L 344.042969 273.65625 L 387.695312 230.003906 Z M 274.308594 230.003906 "/>
<path fill-rule="nonzero" fill="rgb(17.999268%, 41.999817%, 40.99884%)" fill-opacity="0.25" d="M 387.695312 230.003906 L 387.695312 227.167969 L 344.042969 270.820312 L 344.042969 273.65625 Z M 387.695312 230.003906 "/>
<path fill="none" stroke-width="0.79701" stroke-linecap="butt" stroke-linejoin="miter" stroke="rgb(0%, 0%, 0%)" stroke-opacity="1" stroke-miterlimit="10" d="M -0.00140625 110.552094 L 113.385312 110.552094 L 69.732969 66.89975 L -43.65375 66.89975 Z M -0.00140625 110.552094 " transform="matrix(1, 0, 0, -1, 274.31, 340.556)"/>
<path fill-rule="nonzero" fill="rgb(44.848633%, 43.548584%, 42.89856%)" fill-opacity="0.25" d="M 387.695312 340.554688 L 387.695312 227.167969 L 384.863281 227.167969 L 384.863281 340.554688 Z M 387.695312 340.554688 "/>
<path fill-rule="nonzero" fill="rgb(44.848633%, 43.548584%, 42.89856%)" fill-opacity="0.25" d="M 344.042969 384.210938 L 344.042969 270.820312 L 341.210938 270.820312 L 341.210938 384.210938 Z M 344.042969 384.210938 "/>
<path fill-rule="nonzero" fill="rgb(44.848633%, 43.548584%, 42.89856%)" fill-opacity="0.25" d="M 387.695312 340.554688 L 387.695312 227.167969 L 344.042969 270.820312 L 344.042969 384.210938 Z M 387.695312 340.554688 "/>
<path fill-rule="nonzero" fill="rgb(44.848633%, 43.548584%, 42.89856%)" fill-opacity="0.25" d="M 384.863281 227.167969 L 384.863281 340.554688 L 341.210938 384.210938 L 341.210938 270.820312 Z M 384.863281 227.167969 "/>
<path fill-rule="nonzero" fill="rgb(44.848633%, 43.548584%, 42.89856%)" fill-opacity="0.25" d="M 387.695312 227.167969 L 344.042969 270.820312 L 341.210938 270.820312 L 384.863281 227.167969 Z M 387.695312 227.167969 "/>
<path fill-rule="nonzero" fill="rgb(44.848633%, 43.548584%, 42.89856%)" fill-opacity="0.25" stroke-width="0.79701" stroke-linecap="butt" stroke-linejoin="miter" stroke="rgb(0%, 0%, 0%)" stroke-opacity="1" stroke-miterlimit="10" d="M 110.553281 113.388031 L 110.553281 0.0013125 L 66.900937 -43.654937 L 66.900937 69.735688 Z M 110.553281 113.388031 " transform="matrix(1, 0, 0, -1, 274.31, 340.556)"/>
<path fill="none" stroke-width="1.19553" stroke-linecap="butt" stroke-linejoin="miter" stroke="rgb(0%, 0%, 0%)" stroke-opacity="1" stroke-miterlimit="10" d="M -0.00140625 0.0013125 L -0.00140625 113.388031 L 113.385312 113.388031 L 113.385312 0.0013125 Z M -0.00140625 0.0013125 " transform="matrix(1, 0, 0, -1, 274.31, 340.556)"/>
<path fill="none" stroke-width="1.19553" stroke-linecap="butt" stroke-linejoin="miter" stroke="rgb(0%, 0%, 0%)" stroke-opacity="1" stroke-miterlimit="10" d="M -43.65375 -43.654937 L -43.65375 69.735688 L 69.732969 69.735688 L 69.732969 -43.654937 Z M -43.65375 -43.654937 " transform="matrix(1, 0, 0, -1, 274.31, 340.556)"/>
<path fill="none" stroke-width="1.19553" stroke-linecap="butt" stroke-linejoin="miter" stroke="rgb(0%, 0%, 0%)" stroke-opacity="1" stroke-miterlimit="10" d="M -0.00140625 0.0013125 L -0.00140625 113.388031 L -43.65375 69.735688 L -43.65375 -43.654937 Z M -0.00140625 0.0013125 " transform="matrix(1, 0, 0, -1, 274.31, 340.556)"/>
<path fill="none" stroke-width="1.19553" stroke-linecap="butt" stroke-linejoin="miter" stroke="rgb(0%, 0%, 0%)" stroke-opacity="1" stroke-miterlimit="10" d="M 113.385312 113.388031 L 113.385312 0.0013125 L 69.732969 -43.654937 L 69.732969 69.735688 Z M 113.385312 113.388031 " transform="matrix(1, 0, 0, -1, 274.31, 340.556)"/>
<path fill-rule="nonzero" fill="rgb(44.848633%, 43.548584%, 42.89856%)" fill-opacity="0.25" d="M 501.085938 340.554688 L 501.085938 227.167969 L 503.917969 227.167969 L 503.917969 340.554688 Z M 501.085938 340.554688 "/>
<path fill-rule="nonzero" fill="rgb(44.848633%, 43.548584%, 42.89856%)" fill-opacity="0.25" d="M 457.429688 384.210938 L 457.429688 270.820312 L 460.265625 270.820312 L 460.265625 384.210938 Z M 457.429688 384.210938 "/>
<path fill-rule="nonzero" fill="rgb(44.848633%, 43.548584%, 42.89856%)" fill-opacity="0.25" d="M 501.085938 340.554688 L 501.085938 227.167969 L 457.429688 270.820312 L 457.429688 384.210938 Z M 501.085938 340.554688 "/>
<path fill-rule="nonzero" fill="rgb(44.848633%, 43.548584%, 42.89856%)" fill-opacity="0.25" d="M 503.917969 227.167969 L 503.917969 340.554688 L 460.265625 384.210938 L 460.265625 270.820312 Z M 503.917969 227.167969 "/>
<path fill-rule="nonzero" fill="rgb(44.848633%, 43.548584%, 42.89856%)" fill-opacity="0.25" d="M 501.085938 227.167969 L 457.429688 270.820312 L 460.265625 270.820312 L 503.917969 227.167969 Z M 501.085938 227.167969 "/>
<path fill-rule="nonzero" fill="rgb(44.848633%, 43.548584%, 42.89856%)" fill-opacity="0.25" stroke-width="0.79701" stroke-linecap="butt" stroke-linejoin="miter" stroke="rgb(0%, 0%, 0%)" stroke-opacity="1" stroke-miterlimit="10" d="M 229.607969 113.388031 L 229.607969 0.0013125 L 185.955625 -43.654937 L 185.955625 69.735688 Z M 229.607969 113.388031 " transform="matrix(1, 0, 0, -1, 274.31, 340.556)"/>
<g clip-path="url(#clip-0)">
<path fill="none" stroke-width="0.79701" stroke-linecap="butt" stroke-linejoin="miter" stroke="rgb(0%, 0%, 0%)" stroke-opacity="1" stroke-miterlimit="10" d="M 226.775937 0.0013125 L 226.775937 113.388031 L 340.162656 113.388031 L 340.162656 0.0013125 Z M 226.775937 0.0013125 " transform="matrix(1, 0, 0, -1, 274.31, 340.556)"/>
</g>
<path fill="none" stroke-width="0.79701" stroke-linecap="butt" stroke-linejoin="miter" stroke="rgb(0%, 0%, 0%)" stroke-opacity="1" stroke-miterlimit="10" d="M 183.119687 -43.654937 L 183.119687 69.735688 L 296.506406 69.735688 L 296.506406 -43.654937 Z M 183.119687 -43.654937 " transform="matrix(1, 0, 0, -1, 274.31, 340.556)"/>
<path fill="none" stroke-width="0.79701" stroke-linecap="butt" stroke-linejoin="miter" stroke="rgb(0%, 0%, 0%)" stroke-opacity="1" stroke-miterlimit="10" d="M 226.775937 0.0013125 L 226.775937 113.388031 L 183.119687 69.735688 L 183.119687 -43.654937 Z M 226.775937 0.0013125 " transform="matrix(1, 0, 0, -1, 274.31, 340.556)"/>
<g clip-path="url(#clip-1)">
<path fill="none" stroke-width="0.79701" stroke-linecap="butt" stroke-linejoin="miter" stroke="rgb(0%, 0%, 0%)" stroke-opacity="1" stroke-miterlimit="10" d="M 340.162656 113.388031 L 340.162656 0.0013125 L 296.506406 -43.654937 L 296.506406 69.735688 Z M 340.162656 113.388031 " transform="matrix(1, 0, 0, -1, 274.31, 340.556)"/>
</g>
<path fill-rule="nonzero" fill="rgb(17.999268%, 41.999817%, 40.99884%)" fill-opacity="0.25" d="M 274.308594 113.78125 L 274.308594 110.949219 L 387.695312 110.949219 L 387.695312 113.78125 Z M 274.308594 113.78125 "/>
<path fill-rule="nonzero" fill="rgb(17.999268%, 41.999817%, 40.99884%)" fill-opacity="0.25" d="M 230.65625 157.433594 L 230.65625 154.601562 L 344.042969 154.601562 L 344.042969 157.433594 Z M 230.65625 157.433594 "/>
<path fill-rule="nonzero" fill="rgb(17.999268%, 41.999817%, 40.99884%)" fill-opacity="0.25" d="M 274.308594 113.78125 L 274.308594 110.949219 L 230.65625 154.601562 L 230.65625 157.433594 Z M 274.308594 113.78125 "/>
<path fill-rule="nonzero" fill="rgb(17.999268%, 41.999817%, 40.99884%)" fill-opacity="0.25" d="M 387.695312 110.949219 L 387.695312 113.78125 L 344.042969 157.433594 L 344.042969 154.601562 Z M 387.695312 110.949219 "/>
<path fill-rule="nonzero" fill="rgb(17.999268%, 41.999817%, 40.99884%)" fill-opacity="0.25" d="M 274.308594 110.949219 L 230.65625 154.601562 L 344.042969 154.601562 L 387.695312 110.949219 Z M 274.308594 110.949219 "/>
<path fill-rule="nonzero" fill="rgb(17.999268%, 41.999817%, 40.99884%)" fill-opacity="0.25" d="M 387.695312 110.949219 L 387.695312 113.78125 L 344.042969 157.433594 L 344.042969 154.601562 Z M 387.695312 110.949219 "/>
<path fill="none" stroke-width="0.79701" stroke-linecap="butt" stroke-linejoin="miter" stroke="rgb(0%, 0%, 0%)" stroke-opacity="1" stroke-miterlimit="10" d="M -0.00140625 229.606781 L -43.65375 185.954438 L 69.732969 185.954438 L 113.385312 229.606781 Z M -0.00140625 229.606781 " transform="matrix(1, 0, 0, -1, 274.31, 340.556)"/>
<path fill="none" stroke-width="0.79701" stroke-linecap="butt" stroke-linejoin="miter" stroke="rgb(0%, 0%, 0%)" stroke-opacity="1" stroke-miterlimit="10" d="M -0.00140625 226.77475 L -0.00140625 340.161469 L 113.385312 340.161469 L 113.385312 226.77475 Z M -0.00140625 226.77475 " transform="matrix(1, 0, 0, -1, 274.31, 340.556)"/>
<path fill="none" stroke-width="0.79701" stroke-linecap="butt" stroke-linejoin="miter" stroke="rgb(0%, 0%, 0%)" stroke-opacity="1" stroke-miterlimit="10" d="M -43.65375 183.122406 L -43.65375 296.509125 L 69.732969 296.509125 L 69.732969 183.122406 Z M -43.65375 183.122406 " transform="matrix(1, 0, 0, -1, 274.31, 340.556)"/>
<path fill="none" stroke-width="0.79701" stroke-linecap="butt" stroke-linejoin="miter" stroke="rgb(0%, 0%, 0%)" stroke-opacity="1" stroke-miterlimit="10" d="M -0.00140625 226.77475 L -0.00140625 340.161469 L -43.65375 296.509125 L -43.65375 183.122406 Z M -0.00140625 226.77475 " transform="matrix(1, 0, 0, -1, 274.31, 340.556)"/>
<path fill="none" stroke-width="0.79701" stroke-linecap="butt" stroke-linejoin="miter" stroke="rgb(0%, 0%, 0%)" stroke-opacity="1" stroke-miterlimit="10" d="M 113.385312 340.161469 L 113.385312 226.77475 L 69.732969 183.122406 L 69.732969 296.509125 Z M 113.385312 340.161469 " transform="matrix(1, 0, 0, -1, 274.31, 340.556)"/>
<path fill-rule="nonzero" fill="rgb(63.749695%, 41.249084%, 9.74884%)" fill-opacity="0.25" d="M 160.921875 340.554688 L 160.921875 227.167969 L 158.089844 227.167969 L 158.089844 340.554688 Z M 160.921875 340.554688 "/>
<path fill-rule="nonzero" fill="rgb(63.749695%, 41.249084%, 9.74884%)" fill-opacity="0.25" d="M 117.269531 384.210938 L 117.269531 270.820312 L 114.433594 270.820312 L 114.433594 384.210938 Z M 117.269531 384.210938 "/>
<path fill-rule="nonzero" fill="rgb(63.749695%, 41.249084%, 9.74884%)" fill-opacity="0.25" d="M 160.921875 340.554688 L 160.921875 227.167969 L 117.269531 270.820312 L 117.269531 384.210938 Z M 160.921875 340.554688 "/>
<path fill-rule="nonzero" fill="rgb(63.749695%, 41.249084%, 9.74884%)" fill-opacity="0.25" d="M 158.089844 227.167969 L 158.089844 340.554688 L 114.433594 384.210938 L 114.433594 270.820312 Z M 158.089844 227.167969 "/>
<path fill-rule="nonzero" fill="rgb(63.749695%, 41.249084%, 9.74884%)" fill-opacity="0.25" d="M 160.921875 227.167969 L 117.269531 270.820312 L 114.433594 270.820312 L 158.089844 227.167969 Z M 160.921875 227.167969 "/>
<path fill-rule="nonzero" fill="rgb(63.749695%, 41.249084%, 9.74884%)" fill-opacity="0.25" stroke-width="0.79701" stroke-linecap="butt" stroke-linejoin="miter" stroke="rgb(0%, 0%, 0%)" stroke-opacity="1" stroke-miterlimit="10" d="M -116.220156 113.388031 L -116.220156 0.0013125 L -159.876406 -43.654937 L -159.876406 69.735688 Z M -116.220156 113.388031 " transform="matrix(1, 0, 0, -1, 274.31, 340.556)"/>
<path fill="none" stroke-width="0.79701" stroke-linecap="butt" stroke-linejoin="miter" stroke="rgb(0%, 0%, 0%)" stroke-opacity="1" stroke-miterlimit="10" d="M -226.774844 0.0013125 L -226.774844 113.388031 L -113.388125 113.388031 L -113.388125 0.0013125 Z M -226.774844 0.0013125 " transform="matrix(1, 0, 0, -1, 274.31, 340.556)"/>
<path fill="none" stroke-width="0.79701" stroke-linecap="butt" stroke-linejoin="miter" stroke="rgb(0%, 0%, 0%)" stroke-opacity="1" stroke-miterlimit="10" d="M -270.427188 -43.654937 L -270.427188 69.735688 L -157.040469 69.735688 L -157.040469 -43.654937 Z M -270.427188 -43.654937 " transform="matrix(1, 0, 0, -1, 274.31, 340.556)"/>
<path fill="none" stroke-width="0.79701" stroke-linecap="butt" stroke-linejoin="miter" stroke="rgb(0%, 0%, 0%)" stroke-opacity="1" stroke-miterlimit="10" d="M -226.774844 0.0013125 L -226.774844 113.388031 L -270.427188 69.735688 L -270.427188 -43.654937 Z M -226.774844 0.0013125 " transform="matrix(1, 0, 0, -1, 274.31, 340.556)"/>
<path fill="none" stroke-width="0.79701" stroke-linecap="butt" stroke-linejoin="miter" stroke="rgb(0%, 0%, 0%)" stroke-opacity="1" stroke-miterlimit="10" d="M -113.388125 113.388031 L -113.388125 0.0013125 L -157.040469 -43.654937 L -157.040469 69.735688 Z M -113.388125 113.388031 " transform="matrix(1, 0, 0, -1, 274.31, 340.556)"/>
<path fill-rule="nonzero" fill="rgb(61.199951%, 22.099304%, 5.099487%)" fill-opacity="0.25" d="M 274.308594 456.777344 L 274.308594 453.941406 L 387.695312 453.941406 L 387.695312 456.777344 Z M 274.308594 456.777344 "/>
<path fill-rule="nonzero" fill="rgb(61.199951%, 22.099304%, 5.099487%)" fill-opacity="0.25" d="M 230.65625 500.429688 L 230.65625 497.597656 L 344.042969 497.597656 L 344.042969 500.429688 Z M 230.65625 500.429688 "/>
<path fill-rule="nonzero" fill="rgb(61.199951%, 22.099304%, 5.099487%)" fill-opacity="0.25" d="M 274.308594 456.777344 L 274.308594 453.941406 L 230.65625 497.597656 L 230.65625 500.429688 Z M 274.308594 456.777344 "/>
<path fill-rule="nonzero" fill="rgb(61.199951%, 22.099304%, 5.099487%)" fill-opacity="0.25" d="M 387.695312 453.941406 L 387.695312 456.777344 L 344.042969 500.429688 L 344.042969 497.597656 Z M 387.695312 453.941406 "/>
<path fill-rule="nonzero" fill="rgb(61.199951%, 22.099304%, 5.099487%)" fill-opacity="0.25" d="M 274.308594 453.941406 L 230.65625 497.597656 L 344.042969 497.597656 L 387.695312 453.941406 Z M 274.308594 453.941406 "/>
<path fill-rule="nonzero" fill="rgb(61.199951%, 22.099304%, 5.099487%)" fill-opacity="0.25" d="M 387.695312 453.941406 L 387.695312 456.777344 L 344.042969 500.429688 L 344.042969 497.597656 Z M 387.695312 453.941406 "/>
<path fill="none" stroke-width="0.79701" stroke-linecap="butt" stroke-linejoin="miter" stroke="rgb(0%, 0%, 0%)" stroke-opacity="1" stroke-miterlimit="10" d="M -0.00140625 -113.385406 L 113.385312 -113.385406 L 69.732969 -157.041656 L -43.65375 -157.041656 Z M -0.00140625 -113.385406 " transform="matrix(1, 0, 0, -1, 274.31, 340.556)"/>
<path fill="none" stroke-width="0.79701" stroke-linecap="butt" stroke-linejoin="miter" stroke="rgb(0%, 0%, 0%)" stroke-opacity="1" stroke-miterlimit="10" d="M -0.00140625 -226.776031 L -0.00140625 -113.385406 L 113.385312 -113.385406 L 113.385312 -226.776031 Z M -0.00140625 -226.776031 " transform="matrix(1, 0, 0, -1, 274.31, 340.556)"/>
<g clip-path="url(#clip-2)">
<path fill="none" stroke-width="0.79701" stroke-linecap="butt" stroke-linejoin="miter" stroke="rgb(0%, 0%, 0%)" stroke-opacity="1" stroke-miterlimit="10" d="M -43.65375 -270.428375 L -43.65375 -157.041656 L 69.732969 -157.041656 L 69.732969 -270.428375 Z M -43.65375 -270.428375 " transform="matrix(1, 0, 0, -1, 274.31, 340.556)"/>
</g>
<g clip-path="url(#clip-3)">
<path fill="none" stroke-width="0.79701" stroke-linecap="butt" stroke-linejoin="miter" stroke="rgb(0%, 0%, 0%)" stroke-opacity="1" stroke-miterlimit="10" d="M -0.00140625 -226.776031 L -0.00140625 -113.385406 L -43.65375 -157.041656 L -43.65375 -270.428375 Z M -0.00140625 -226.776031 " transform="matrix(1, 0, 0, -1, 274.31, 340.556)"/>
</g>
<g clip-path="url(#clip-4)">
<path fill="none" stroke-width="0.79701" stroke-linecap="butt" stroke-linejoin="miter" stroke="rgb(0%, 0%, 0%)" stroke-opacity="1" stroke-miterlimit="10" d="M 113.385312 -113.385406 L 113.385312 -226.776031 L 69.732969 -270.428375 L 69.732969 -157.041656 Z M 113.385312 -113.385406 " transform="matrix(1, 0, 0, -1, 274.31, 340.556)"/>
</g>
<path fill="none" stroke-width="1.59404" stroke-linecap="butt" stroke-linejoin="miter" stroke="rgb(44.848633%, 43.548584%, 42.89856%)" stroke-opacity="1" stroke-miterlimit="10" d="M 119.90875 41.954438 C 139.053281 53.009125 157.455625 53.009125 168.885312 46.407563 " transform="matrix(1, 0, 0, -1, 274.31, 340.556)"/>
<path fill-rule="nonzero" fill="rgb(44.848633%, 43.548584%, 42.89856%)" fill-opacity="1" stroke-width="1.59404" stroke-linecap="butt" stroke-linejoin="miter" stroke="rgb(44.848633%, 43.548584%, 42.89856%)" stroke-opacity="1" stroke-miterlimit="10" d="M 11.904297 -0.00101564 L 2.57457 3.525587 L 5.661655 -0.00113412 L 2.572467 -3.525741 Z M 11.904297 -0.00101564 " transform="matrix(0.86601, 0.49998, 0.49998, -0.86601, 438.63658, 291.51596)"/>
<path fill="none" stroke-width="1.59404" stroke-linecap="butt" stroke-linejoin="miter" stroke="rgb(44.848633%, 43.548584%, 42.89856%)" stroke-opacity="1" stroke-miterlimit="10" d="M 176.600156 27.778656 C 157.455625 16.723969 139.053281 16.723969 127.623594 23.325531 " transform="matrix(1, 0, 0, -1, 274.31, 340.556)"/>
<path fill-rule="nonzero" fill="rgb(44.848633%, 43.548584%, 42.89856%)" fill-opacity="1" stroke-width="1.59404" stroke-linecap="butt" stroke-linejoin="miter" stroke="rgb(44.848633%, 43.548584%, 42.89856%)" stroke-opacity="1" stroke-miterlimit="10" d="M 11.90338 -0.000799082 L 2.573653 3.525803 L 5.660737 -0.000917564 L 2.574933 -3.523571 Z M 11.90338 -0.000799082 " transform="matrix(-0.86601, -0.49998, -0.49998, 0.86601, 406.49164, 319.8623)"/>
<path fill="none" stroke-width="1.59404" stroke-linecap="butt" stroke-linejoin="miter" stroke="rgb(63.749695%, 41.249084%, 9.74884%)" stroke-opacity="1" stroke-miterlimit="10" d="M -106.868594 41.954438 C -87.720156 53.009125 -69.321719 53.009125 -57.892031 46.407563 " transform="matrix(1, 0, 0, -1, 274.31, 340.556)"/>
<path fill-rule="nonzero" fill="rgb(63.749695%, 41.249084%, 9.74884%)" fill-opacity="1" stroke-width="1.59404" stroke-linecap="butt" stroke-linejoin="miter" stroke="rgb(63.749695%, 41.249084%, 9.74884%)" stroke-opacity="1" stroke-miterlimit="10" d="M 11.905157 -0.000519387 L 2.57543 3.526083 L 5.662514 -0.000637869 L 2.573327 -3.525244 Z M 11.905157 -0.000519387 " transform="matrix(0.86601, 0.49998, 0.49998, -0.86601, 211.86215, 291.51596)"/>
<path fill="none" stroke-width="1.59404" stroke-linecap="butt" stroke-linejoin="miter" stroke="rgb(63.749695%, 41.249084%, 9.74884%)" stroke-opacity="1" stroke-miterlimit="10" d="M -50.173281 27.778656 C -69.321719 16.723969 -87.720156 16.723969 -99.149844 23.325531 " transform="matrix(1, 0, 0, -1, 274.31, 340.556)"/>
<path fill-rule="nonzero" fill="rgb(63.749695%, 41.249084%, 9.74884%)" fill-opacity="1" stroke-width="1.59404" stroke-linecap="butt" stroke-linejoin="miter" stroke="rgb(63.749695%, 41.249084%, 9.74884%)" stroke-opacity="1" stroke-miterlimit="10" d="M 11.902511 -0.00130034 L 2.572784 3.525302 L 5.659869 -0.00141882 L 2.574065 -3.524072 Z M 11.902511 -0.00130034 " transform="matrix(-0.86601, -0.49998, -0.49998, 0.86601, 179.7172, 319.8623)"/>
<path fill="none" stroke-width="1.59404" stroke-linecap="butt" stroke-linejoin="miter" stroke="rgb(61.199951%, 22.099304%, 5.099487%)" stroke-opacity="1" stroke-miterlimit="10" d="M 41.951719 -50.174469 C 53.006406 -69.319 53.006406 -87.721344 46.40875 -99.151031 " transform="matrix(1, 0, 0, -1, 274.31, 340.556)"/>
<path fill-rule="nonzero" fill="rgb(61.199951%, 22.099304%, 5.099487%)" fill-opacity="1" stroke-width="1.59404" stroke-linecap="butt" stroke-linejoin="miter" stroke="rgb(61.199951%, 22.099304%, 5.099487%)" stroke-opacity="1" stroke-miterlimit="10" d="M 11.903269 -0.000237832 L 2.573542 3.526365 L 5.660627 -0.000356314 L 2.574822 -3.52301 Z M 11.903269 -0.000237832 " transform="matrix(-0.49998, 0.86601, 0.86601, 0.49998, 323.35004, 435.1488)"/>
<path fill="none" stroke-width="1.59404" stroke-linecap="butt" stroke-linejoin="miter" stroke="rgb(61.199951%, 22.099304%, 5.099487%)" stroke-opacity="1" stroke-miterlimit="10" d="M 27.779844 -106.865875 C 16.725156 -87.721344 16.725156 -69.319 23.326719 -57.889312 " transform="matrix(1, 0, 0, -1, 274.31, 340.556)"/>
<path fill-rule="nonzero" fill="rgb(61.199951%, 22.099304%, 5.099487%)" fill-opacity="1" stroke-width="1.59404" stroke-linecap="butt" stroke-linejoin="miter" stroke="rgb(61.199951%, 22.099304%, 5.099487%)" stroke-opacity="1" stroke-miterlimit="10" d="M 11.904399 -0.00158189 L 2.574672 3.525021 L 5.661756 -0.00170037 L 2.575952 -3.524354 Z M 11.904399 -0.00158189 " transform="matrix(0.49998, -0.86601, -0.86601, -0.49998, 295.0037, 403.00385)"/>
<path fill="none" stroke-width="1.59404" stroke-linecap="butt" stroke-linejoin="miter" stroke="rgb(17.999268%, 41.999817%, 40.99884%)" stroke-opacity="1" stroke-miterlimit="10" d="M 41.951719 176.598969 C 53.006406 157.454438 53.006406 139.056 46.40875 127.622406 " transform="matrix(1, 0, 0, -1, 274.31, 340.556)"/>
<path fill-rule="nonzero" fill="rgb(17.999268%, 41.999817%, 40.99884%)" fill-opacity="1" stroke-width="1.59404" stroke-linecap="butt" stroke-linejoin="miter" stroke="rgb(17.999268%, 41.999817%, 40.99884%)" stroke-opacity="1" stroke-miterlimit="10" d="M 11.904137 0.000263422 L 2.57441 3.526866 L 5.661495 0.00014494 L 2.572308 -3.524462 Z M 11.904137 0.000263422 " transform="matrix(-0.49998, 0.86601, 0.86601, 0.49998, 323.35004, 208.37436)"/>
<path fill="none" stroke-width="1.59404" stroke-linecap="butt" stroke-linejoin="miter" stroke="rgb(17.999268%, 41.999817%, 40.99884%)" stroke-opacity="1" stroke-miterlimit="10" d="M 27.779844 119.907563 C 16.725156 139.056 16.725156 157.454438 23.326719 168.884125 " transform="matrix(1, 0, 0, -1, 274.31, 340.556)"/>
<path fill-rule="nonzero" fill="rgb(17.999268%, 41.999817%, 40.99884%)" fill-opacity="1" stroke-width="1.59404" stroke-linecap="butt" stroke-linejoin="miter" stroke="rgb(17.999268%, 41.999817%, 40.99884%)" stroke-opacity="1" stroke-miterlimit="10" d="M 11.903539 -0.00207814 L 2.573812 3.524524 L 5.660897 -0.00219663 L 2.575092 -3.52485 Z M 11.903539 -0.00207814 " transform="matrix(0.49998, -0.86601, -0.86601, -0.49998, 295.0037, 176.22942)"/>
</svg>
